# xmcd
# 
# Track frame offsets:
#     165
#     22666
#     41756
#     58365
#     75543
#     97936
#     118037
#     141566
#     161640
#     177980
# 
# Disc length: 2645
# 
# Revision: 8
# Processed by: cddbd v1.5.2PL0 Copyright (c) Steve Scherf et al.
# Submitted via: fre:ac v1.1beta1pre5
# 
DISCID=820a530a
DTITLE=彭佳慧 - 過程-DISC2
DYEAR=1999
DGENRE=Pop
TTITLE0=月亮使者
TTITLE1=相見恨晚
TTITLE2=敲敲我的頭
TTITLE3=想
TTITLE4=啦啦啦
TTITLE5=心酸的情歌
TTITLE6=愛到 無路可恨
TTITLE7=為了你
TTITLE8=你心裡的雪停了沒有
TTITLE9=心圖
EXTD=ID3G: 13
EXTT0=
EXTT1=
EXTT2=
EXTT3=
EXTT4=
EXTT5=
EXTT6=
EXTT7=
EXTT8=
EXTT9=
PLAYORDER=
